<svg xmlns="http://www.w3.org/2000/svg" width="212" height="148" fill="none" viewBox="0 0 106 74"><rect width="105" height="73" x=".5" y=".5" fill="#5F8D2F" fill-opacity=".3" rx="9.5"/><rect width="105" height="73" x=".5" y=".5" stroke="#5F8D2F" rx="9.5"/><path fill="#fff" d="M25.5121 10.6164h-1.3642v1.3894h1.3642v-1.3894ZM26.7238 12.1115h-1.3124v.8849h1.3124v-.8849ZM27.9298 13.232h-1.2089v1.2293h1.2089V13.232ZM30.1709 15.9142h-.813v.8276h.813v-.8276ZM32.4485 18.566h-.4841v.4924h.4841v-.4924ZM32.4363 16.1044h-.4842v.4924h.4842v-.4924ZM33.6907 17.3337h-.4842v.4924h.4842v-.4924ZM33.6575 19.8406h-.4842v.4924h.4842v-.4924ZM34.7964 18.6808h-.2832v.29h.2832v-.29ZM34.781 21.2059h-.2192v.2235h.2192v-.2235ZM34.781 13.7365h-.2192v.2235h.2192v-.2235ZM27.3938 6.2247h-.2192v.2235h.2192v-.2235ZM20.0037 6.2247h-.2193v.2235h.2193v-.2235ZM27.8962 10.713h-1.218v1.2384h1.218V10.713ZM26.7027 9.5714h-1.3094v1.0088h1.3094V9.5714ZM21.8703 9.4988h-1.3642v1.1508h1.3642V9.4988Z"/><path fill="#fff" d="M20.6248 10.6073h-1.4585v1.483h1.4585v-1.483Z"/><path fill="#fff" d="M19.4282 12.0601h-1.352v.9122h1.352v-.9122ZM18.2619 13.1112H16.709v1.3743h1.5529v-1.3743ZM18.1613 15.6664h-1.352v1.3743h1.352v-1.3743ZM23.0912 18.264h-1.4098v1.0874h1.4098V18.264ZM27.9451 18.2036h-1.2637v1.2837h1.2637v-1.2837Z"/><path fill="#fff" d="M29.1448 19.4238h-1.2637v1.2837h1.2637v-1.2837Z"/><path fill="#fff" d="M30.3079 20.6833h-1.1875v1.2082h1.1875v-1.2082ZM29.1872 22.1362h-1.352v.891h1.352v-.891ZM27.9234 23.1782h-1.2972v1.3199h1.2972v-1.3199ZM23.0029 23.3745h-1.2697v.9303h1.2697v-.9303ZM21.4895 22.2117h-.7217v.7339h.7217v-.7339ZM24.0016 22.2117h-.8222v.7339h.8222v-.7339ZM20.165 21.0428h-.5329v.5406h.5329v-.5406ZM22.7319 21.0428h-.7277v.5406h.7277v-.5406ZM25.4635 23.2023h-1.2211v1.2414h1.2211v-1.2414ZM26.5079 22.2963h-.8648v.5708h.8648v-.5708ZM27.7166 20.9099h-.8648v.8819h.8648v-.8819ZM26.5657 19.7108h-1.0445v.7551h1.0445v-.7551ZM16.6236 19.6776h-.8069v.8185h.8069v-.8185ZM18.0763 20.8314h-1.2789v.9906h1.2789v-.9906ZM19.276 22.1905h-1.3307v.7913h1.3307v-.7913ZM18.2162 23.2205h-1.2484v1.2202h1.2484v-1.2202ZM20.4969 23.2174h-1.1998v1.2202h1.1998v-1.2202ZM20.5882 25.8875h-1.1693v.8577h1.1693v-.8577ZM16.7365 22.2449h-1.0231v.6765h1.0231v-.6765ZM15.2563 23.5678h-.5146v.5225h.5146v-.5225ZM14.02 22.3113h-.5146v.5226h.5146v-.5226ZM16.4773 24.8091h-.5147v.5226h.5147v-.5226ZM17.7104 26.0566h-.5146v.5225h.5146v-.5225ZM18.9438 27.301h-.5146v.5226h.5146v-.5226ZM20.1772 28.5485h-.5146v.5225h.5146v-.5225ZM21.2612 29.9438h-.2192v.2236h.2192v-.2236ZM26.1665 29.9438h-.2192v.2236h.2192v-.2236ZM18.7979 29.9438h-.2193v.2236h.2193v-.2236ZM23.7487 29.9166h-.2741v.2779h.2741v-.2779ZM23.1003 25.9418h-1.4616v.8035h1.4616v-.8035ZM21.4042 27.3252h-.4628v.4712h.4628v-.4712ZM22.6344 28.5485h-.4872v.4953h.4872v-.4953ZM23.8435 27.3252h-.4629v.4712h.4629v-.4712ZM17.8843 18.3939h-.8648v.8819h.8648v-.8819ZM15.3294 16.0319h-.6334v.6434h.6334v-.6434ZM14.0049 17.3367h-.4719v.4803h.4719v-.4803ZM12.7715 16.0833h-.4719v.4803h.4719v-.4803ZM14.105 14.8389h-.6912v.4802h.6912v-.4802ZM15.4603 13.4767h-.8983v.6433h.8983v-.6433ZM15.2714 18.5691h-.5268v.5376h.5268v-.5376ZM14.1508 19.7984h-.7065v.5376h.7065v-.5376ZM12.7779 18.6234h-.4659v.4742h.4659v-.4742ZM11.4471 19.9766h-.2345v.2386h.2345v-.2386ZM11.4471 17.4606h-.2345v.2386h.2345v-.2386ZM12.7502 21.1182h-.4111v.4168h.4111v-.4168ZM15.3233 21.0065h-.6212v.6343h.6212v-.6343ZM23.9285 19.7682h-.6272v.6403h.6272v-.6403ZM21.5108 19.7682h-.7552v.6403h.7552v-.6403ZM19.1629 19.7682h-.8983v.6403h.8983v-.6403ZM25.2105 21.0609h-.743v.5044h.743v-.5044ZM25.3019 25.8422h-.9501v.9665h.9501v-.9665ZM26.2946 27.3372h-.475v.4833h.475v-.4833ZM27.6254 25.978h-.6881v.7008h.6881v-.7008ZM26.6842 24.6431h-1.2211v.8366h1.2211v-.8366ZM24.1112 24.7216h-1.0414v.7158h1.0414v-.7158ZM19.1784 24.7216h-1.0109v.6946h1.0109v-.6946ZM21.721 24.6581h-1.1998v.8216h1.1998v-.8216ZM28.9528 24.7699h-.8678v.595h.8678v-.595ZM30.1679 23.3926H29.3v.885h.8679v-.885ZM31.3128 22.2267h-.6851v.6978h.6851v-.6978ZM25.4114 18.2489h-1.148v1.1659h1.148v-1.1659ZM16.7117 12.2383h-.9927v.6705h.9927v-.6705ZM17.942 10.8369h-.9835v.9997h.9835v-.9997ZM19.0901 9.671h-.813v.8246h.813V9.671ZM20.2899 8.5686h-.7948v.5678h.7948v-.5678ZM27.6072 8.5686h-.6394v.5678h.6394v-.5678ZM28.6605 7.454h-.2801v.284h.2801v-.284ZM24.9698 6.1945h-.2801v.284h.2801v-.284ZM22.5128 6.1945h-.2801v.284h.2801v-.284ZM29.9335 8.65h-.3776v.3837h.3776V8.65ZM31.1817 9.8915h-.408v.4168h.408v-.4168ZM32.4061 11.1329h-.4081v.4168h.4081v-.4168ZM33.566 12.4377h-.2862v.2899h.2862v-.2899ZM26.3432 7.3242h-.5146v.5255h.5146v-.5255ZM23.883 7.3242h-.5146v.5255h.5146v-.5255ZM21.4467 7.3242h-.5146v.5255h.5146v-.5255ZM28.7884 9.813h-.5572v.5678h.5572V9.813ZM30.1345 11.0543h-.8039v.5679h.8039v-.5679ZM31.2093 12.3229h-.5115v.5225h.5115v-.5225ZM32.4546 13.5975h-.5025v.5134h.5025v-.5134ZM33.6756 14.8661h-.4781v.4863h.4781v-.4863ZM34.8083 16.1649h-.2893v.296h.2893v-.296ZM22.8202 8.5112h-.8983v.6796h.8983v-.6796ZM25.3478 8.5112h-1.0353v.6796h1.0353v-.6796ZM20.6554 18.1674h-1.5043v1.2172h1.5043v-1.2172ZM20.4727 15.8718h-1.1419v.9666h1.1419v-.9666ZM29.1114 14.6214h-1.1815v.8789h1.1815v-.8789ZM31.3189 14.8117h-.7308v.5437h.7308v-.5437ZM16.8459 14.6124h-1.1967v.891h1.1967v-.891ZM19.2271 14.7181h-1.0262v.7641h1.0262v-.7641ZM20.4726 13.4616h-1.0688v.8185h1.0688v-.8185ZM25.2595 13.522h-.8557v.6101h.8557v-.6101ZM24.0353 12.2745h-.8222v.5558h.8222v-.5558ZM23.8767 14.8147h-.5024v.5104h.5024v-.5104ZM22.7747 13.5673h-.8069v.5225h.8069v-.5225ZM21.657 12.2292h-1.0322v.6978h1.0322v-.6978ZM22.9117 15.8718h-1.0841v.9454h1.0841v-.9454ZM25.4389 15.8718h-1.2028v.9454h1.2028v-.9454ZM27.7867 15.89h-1.0018v.9092h1.0018V15.89ZM31.2398 17.4001h-.4842v.3595h.4842v-.3595ZM19.3608 17.077h-1.352v1.0027h1.352V17.077ZM21.852 17.077H20.5v1.0027h1.352V17.077ZM24.2667 17.1041h-1.2789v.9484h1.2789v-.9484ZM26.7059 17.1041H25.427v.9484h1.2789v-.9484ZM16.6905 17.228h-.9439v.7007h.9439v-.7007ZM29.047 17.1827h-1.0809v.8034h1.0809v-.8034ZM30.3261 18.2761H28.825v1.1568h1.5011v-1.1568ZM31.3827 19.6534h-.8405v.8548h.8405v-.8548ZM32.4637 21.0881h-.5116v.5195h.5116v-.5195ZM33.6026 22.3929h-.3685v.3745h.3685v-.3745ZM32.4088 23.6041h-.4476v.456h.4476v-.456ZM31.194 24.8394h-.4477v.4561h.4477v-.4561ZM29.9547 26.0989h-.4476v.4561h.4476v-.4561ZM28.7399 27.3372h-.4477v.4561h.4477v-.4561ZM16.4469 27.3372h-.4476v.4561h.4476v-.4561ZM15.2228 26.0898h-.4477v.4561h.4477v-.4561ZM13.9652 24.8666h-.3959v.4017h.3959v-.4017ZM12.6591 23.7249h-.2101v.2144h.2101v-.2144ZM11.4014 22.5076h-.1492v.151h.1492v-.151ZM25.0521 28.5907h-.4476v.4561h.4476v-.4561ZM27.4516 28.6451h-.341v.3473h.341v-.3473ZM17.6225 28.6451h-.341v.3473h.341v-.3473ZM21.444 14.8147h-.5512v.5588h.5512v-.5588ZM26.3434 14.8147h-.5512v.5588h.5512v-.5588ZM23.0914 10.8127h-1.4403v1.036h1.4403v-1.036ZM24.1753 9.4988h-1.3794v.9786h1.3794v-.9786ZM29.1477 12.1447h-1.2515v.8457h1.2515v-.8457ZM30.2471 13.3045h-1.02v1.039h1.02v-1.039ZM17.184 9.1364h.5572v-.5679h-.5572v.5678ZM16.127 7.6987h.198v-.1994h-.198v.1994ZM14.9063 8.937h.1918v-.1932h-.1918v.1933ZM13.6821 10.1875h.1736v-.1782h-.1736v.1782ZM12.4731 11.4138h.1431v-.145h-.1431v.145ZM33.3713 25.1656h.1309v-.1329h-.1309v.1329ZM32.1168 26.4402h.1918v-.1933h-.1918v.1933ZM30.8926 27.6906h.1736v-.1782h-.1736v.1782ZM29.6838 28.9169h.1431v-.1449h-.1431v.1449ZM18.4019 7.8467h.5146V7.321h-.5146v.5256ZM15.9596 10.3778h.5572V9.81h-.5572v.5678ZM14.7389 11.6252h.5572v-.5678h-.5572v.5678ZM13.5692 12.8092h.4476v-.4561h-.4476v.4561ZM12.3698 14.0324h.3502v-.3564h-.3502v.3564ZM11.1913 15.2285h.2345v-.2386h-.2345v.2386ZM48.5026 15.3805c.0178-1.194-.089-2.3704-1.4353-2.3704-.8227 0-1.3498.3391-1.3498 1.247 0 1.0139.6304 1.406 1.3997 1.9077.8049.5157 2.2936 1.5155 2.9774 2.1902.8405.8373 1.1041 1.6392 1.1041 2.7979 0 2.5294-1.6454 3.8471-4.0459 3.8471-2.9418 0-3.9924-1.6745-3.9924-4.0626v-.9785h2.4503v.7842c-.0534 1.3.3312 2.2433 1.5421 2.2433 1.0329 0 1.5243-.5511 1.5243-1.5685 0-.7843-.349-1.3177-.9794-1.7628-1.2785-1.0139-2.8705-1.7452-3.8713-3.0805-.4024-.6041-.6304-1.3354-.6304-2.049C43.196 12.247 44.4568 11 47.0495 11c3.907 0 3.8001 3.0628 3.818 4.3841h-2.3649v-.0036ZM52.8799 24.6821V11.3215h5.0074c2.3471 0 3.0665 1.9253 3.0665 3.7941 0 1.141-.2992 2.4234-1.2252 3.1723-.7693.6218-1.8057.8196-2.7494.8019h-1.6455v5.5923H52.8799Zm2.4503-7.5529h1.3142c1.0684 0 1.7878-.4628 1.7878-2.0843 0-1.5332-.5947-1.7628-1.9801-1.7628h-1.1219v3.8471ZM64.6859 18.9273v5.7548h-2.4503V11.3215h4.1812c2.1191 0 3.6719.7489 3.6719 3.2076 0 1.459-.3669 2.9922-2.0158 3.2254v.0353c1.4531.1943 1.8911 1.1411 1.8911 2.4234 0 .5511-.0712 3.8294.5271 4.2216v.2508h-2.696c-.2992-.8549-.2458-2.4941-.2636-3.3843-.0178-.8196 0-1.943-.8405-2.1903-.666-.1943-.8654-.1766-1.567-.1766h-.4381v-.0071Zm0-1.9606h1.4673c.8049-.053 1.3783-.5864 1.3783-1.9253 0-1.4979-.5556-1.7452-1.4851-1.7628h-1.3605v3.6881ZM72.1191 24.6821V11.3215h2.4503v13.3606h-2.4503ZM76.5673 24.6821V11.3215h3.9568c1.0506 0 2.0835.0706 2.7851.9785.5591.7313.6482 1.4979.6482 2.4058 0 1.1587-.2458 2.2962-1.5778 2.7979v.0353c1.3819.1943 1.909 1.3707 1.909 3.0981 0 .5511-.0356 1.1058-.1745 1.6392-.5271 1.6922-1.4709 2.4058-3.2232 2.4058h-4.3272.0036Zm2.9062-7.9627c.5947 0 1.3676.0353 1.7522-.4628.2279-.3391.2636-.8019.2636-1.4413 0-.9962-.2102-1.4979-1.332-1.5332h-1.1397v3.4373h.4559Zm.0712 6.002c.5093 0 1.0328.053 1.4709-.1413.666-.3038.7515-1.1764.7515-1.8511 0-1.4413-.2814-2.049-1.8022-2.049h-.9473v4.045h.5271v-.0036ZM85.9375 24.6821V11.3215h6.9022v1.9606h-4.4483v3.3666h4.0992v1.9607h-4.0992v4.1156h4.4483v1.9606h-6.9022v-.0035Z"/><rect width="89" height="19" x="8.5" y="36.5" fill="#000" fill-opacity=".5" rx="5.5"/><rect width="89" height="19" x="8.5" y="36.5" stroke="#4FA42C" rx="5.5"/><path fill="#4FA42C" d="M20.017 46.3636c0 .7671-.1384 1.43-.4154 1.9887s-.657.9896-1.14 1.2926c-.4829.303-1.0345.4545-1.6548.4545-.6202 0-1.1719-.1515-1.6548-.4545-.483-.303-.8629-.7339-1.1399-1.2926-.277-.5587-.4155-1.2216-.4155-1.9887 0-.767.1385-1.4299.4155-1.9886.277-.5587.6569-.9896 1.1399-1.2926.4829-.303 1.0346-.4546 1.6548-.4546.6203 0 1.1719.1516 1.6548.4546.483.303.863.7339 1.14 1.2926.277.5587.4154 1.2216.4154 1.9886Zm-.8522 0c0-.6297-.1054-1.1612-.3161-1.5944-.2083-.4333-.4912-.7612-.8487-.9837-.3551-.2225-.7528-.3338-1.1932-.3338-.4403 0-.8392.1113-1.1967.3338-.3551.2225-.638.5504-.8487.9837-.2084.4332-.3125.9647-.3125 1.5944 0 .6298.1041 1.1613.3125 1.5945.2107.4332.4936.7611.8487.9837.3575.2225.7564.3338 1.1967.3338.4404 0 .8381-.1113 1.1932-.3338.3575-.2226.6404-.5505.8487-.9837.2107-.4332.3161-.9647.3161-1.5945Zm4.6484-1.8181v.7102h-2.9403v-.7102h2.9403ZM21.7536 50v-6.2074c0-.3125.0733-.5729.2201-.7812.1468-.2084.3374-.3646.5718-.4688a1.806 1.806 0 0 1 .7421-.1562c.206 0 .3741.0165.5043.0497.1302.0331.2273.0639.2912.0923l-.2415.7244a4.1576 4.1576 0 0 0-.1775-.0532c-.0734-.0213-.1705-.032-.2912-.032-.277 0-.4771.0699-.6002.2095-.1207.1397-.1811.3445-.1811.6144V50h-.838Zm5.6631-5.4545v.7102h-2.9403v-.7102h2.9403ZM25.3571 50v-6.2074c0-.3125.0734-.5729.2201-.7812.1468-.2084.3374-.3646.5718-.4688a1.8061 1.8061 0 0 1 .7422-.1562c.2059 0 .374.0165.5042.0497.1302.0331.2273.0639.2912.0923l-.2415.7244a4.1576 4.1576 0 0 0-.1775-.0532c-.0734-.0213-.1705-.032-.2912-.032-.277 0-.4771.0699-.6002.2095-.1207.1397-.1811.3445-.1811.6144V50h-.838Zm3.2342 0v-5.4545h.838V50h-.838Zm.4261-6.3636c-.1634 0-.3042-.0557-.4226-.1669-.116-.1113-.174-.2451-.174-.4013 0-.1563.058-.29.174-.4013.1184-.1113.2592-.1669.4226-.1669s.303.0556.419.1669c.1184.1113.1776.245.1776.4013 0 .1562-.0592.29-.1776.4013-.116.1112-.2556.1669-.419.1669Zm4.1628 6.4772c-.5113 0-.9517-.1207-1.321-.3622-.3693-.2415-.6534-.5741-.8523-.9978-.1988-.4238-.2983-.908-.2983-1.4525 0-.5539.1018-1.0428.3054-1.4666.206-.4261.4925-.7587.8594-.9979.3693-.2414.8002-.3622 1.2926-.3622.3835 0 .7292.0711 1.0369.2131.3078.142.5599.3409.7564.5966.1965.2557.3185.554.3658.8949h-.8381c-.0639-.2486-.2059-.4688-.4261-.6605-.2178-.1942-.5114-.2912-.8807-.2912-.3267 0-.6131.0852-.8594.2557-.2438.168-.4344.406-.5717.7137-.1349.3054-.2024.6641-.2024 1.076 0 .4214.0663.7884.1989 1.1009.1349.3125.3243.5551.5681.728.2463.1728.5351.2592.8665.2592.2178 0 .4155-.0379.5931-.1136a1.2255 1.2255 0 0 0 .451-.3267c.1231-.1421.2107-.3125.2627-.5114h.8381c-.0473.322-.1645.612-.3516.87-.1846.2557-.4296.4593-.735.6108-.3031.1492-.6558.2237-1.0583.2237Zm3.37-.1136v-5.4545h.8381V50h-.8381Zm.4262-6.3636c-.1634 0-.3042-.0557-.4226-.1669-.116-.1113-.174-.2451-.174-.4013 0-.1563.058-.29.174-.4013.1184-.1113.2592-.1669.4226-.1669.1633 0 .303.0556.419.1669.1184.1113.1776.245.1776.4013 0 .1562-.0592.29-.1776.4013-.116.1112-.2557.1669-.419.1669Zm3.552 6.4914c-.3456 0-.6593-.0651-.941-.1953-.2818-.1325-.5055-.3231-.6712-.5717-.1657-.251-.2486-.554-.2486-.9091 0-.3125.0616-.5658.1847-.7599a1.3034 1.3034 0 0 1 .4936-.4617c.2059-.1113.4332-.1941.6818-.2486a8.2888 8.2888 0 0 1 .7564-.1349 34.189 34.189 0 0 1 .8061-.0959c.2083-.0237.3598-.0627.4545-.1172.0971-.0544.1456-.1491.1456-.2841v-.0284c0-.3504-.0958-.6226-.2876-.8167-.1894-.1942-.477-.2912-.8629-.2912-.4001 0-.7138.0876-.9411.2628-.2273.1751-.3871.3622-.4794.561l-.7954-.2841c.142-.3314.3314-.5894.5681-.7741.2392-.187.4996-.3172.7813-.3906.2841-.0758.5634-.1137.8381-.1137.1752 0 .3764.0213.6037.064.2296.0402.451.1242.664.2521.2155.1278.3942.3208.5362.5788.1421.2581.2131.6037.2131 1.0369V50h-.8381v-.7386h-.0426c-.0568.1183-.1515.245-.2841.3799-.1325.135-.3089.2498-.5291.3445-.2202.0947-.4889.142-.8061.142Zm.1278-.7528c.3315 0 .6108-.0651.8381-.1953.2297-.1302.4025-.2983.5185-.5043.1184-.2059.1775-.4226.1775-.6498v-.7671c-.0355.0426-.1136.0817-.2343.1172-.1184.0332-.2557.0627-.412.0888-.1538.0237-.3042.045-.451.0639a23.0071 23.0071 0 0 0-.3515.0426c-.2178.0284-.4214.0746-.6108.1385-.187.0616-.3386.1551-.4546.2806-.1136.1231-.1704.2911-.1704.5042 0 .2912.1077.5114.3231.6605.2178.1468.4936.2202.8274.2202Zm4.7399-6.6477V50h-.838v-7.2727h.838ZM54.8288 45c-.0781-.2391-.1811-.4534-.3089-.6428a1.9841 1.9841 0 0 0-.451-.49c-.1728-.135-.3693-.2379-.5895-.309-.2202-.071-.4616-.1065-.7244-.1065-.4309 0-.8227.1113-1.1755.3338-.3527.2225-.6332.5504-.8416.9837-.2083.4332-.3125.9647-.3125 1.5944 0 .6298.1054 1.1613.3161 1.5945.2107.4332.496.7611.8558.9837.3598.2225.7647.3338 1.2145.3338.4167 0 .7836-.0888 1.1008-.2664.3196-.1799.5682-.4332.7458-.7599.1799-.3291.2699-.7162.2699-1.1612l.2699.0568h-2.1875v-.7813h2.7698v.7813c0 .5989-.1278 1.1198-.3835 1.5625-.2533.4427-.6037.786-1.0511 1.0298-.4451.2415-.9565.3622-1.5341.3622-.6439 0-1.2098-.1515-1.6975-.4545-.4853-.303-.8641-.7339-1.1363-1.2926-.2699-.5587-.4048-1.2216-.4048-1.9887 0-.5752.0769-1.0925.2308-1.5518.1562-.4617.3764-.8547.6605-1.179.2841-.3243.6203-.5729 1.0085-.7457.3883-.1728.8156-.2593 1.282-.2593.3835 0 .741.058 1.0724.174.3338.1137.6309.2759.8914.4866.2627.2083.4817.458.6569.7492.1752.2889.2959.6097.3622.9624h-.9091Zm3.9516 5.1278c-.3457 0-.6594-.0651-.9411-.1953-.2817-.1325-.5054-.3231-.6712-.5717-.1657-.251-.2485-.554-.2485-.9091 0-.3125.0615-.5658.1846-.7599a1.3042 1.3042 0 0 1 .4936-.4617c.206-.1113.4333-.1941.6819-.2486a8.2867 8.2867 0 0 1 .7563-.1349c.3315-.0426.6002-.0746.8062-.0959.2083-.0237.3598-.0627.4545-.1172.0971-.0544.1456-.1491.1456-.2841v-.0284c0-.3504-.0959-.6226-.2876-.8167-.1894-.1942-.4771-.2912-.863-.2912-.4001 0-.7138.0876-.941.2628-.2273.1751-.3871.3622-.4794.561l-.7955-.2841c.1421-.3314.3315-.5894.5682-.7741.2391-.187.4995-.3172.7812-.3906.2841-.0758.5635-.1137.8381-.1137.1752 0 .3764.0213.6037.064.2297.0402.451.1242.6641.2521.2154.1278.3941.3208.5362.5788.142.2581.2131.6037.2131 1.0369V50h-.8381v-.7386h-.0426c-.0568.1183-.1515.245-.2841.3799-.1326.135-.309.2498-.5291.3445-.2202.0947-.4889.142-.8061.142Zm.1278-.7528c.3314 0 .6108-.0651.8381-.1953.2296-.1302.4024-.2983.5184-.5043.1184-.2059.1776-.4226.1776-.6498v-.7671c-.0355.0426-.1136.0817-.2344.1172-.1184.0332-.2557.0627-.4119.0888-.1539.0237-.3042.045-.451.0639a23.2011 23.2011 0 0 0-.3516.0426c-.2178.0284-.4214.0746-.6108.1385-.187.0616-.3385.1551-.4545.2806-.1136.1231-.1705.2911-.1705.5042 0 .2912.1078.5114.3232.6605.2178.1468.4936.2202.8274.2202ZM62.81 50v-5.4545h.8097v.8522h.071c.1136-.2912.2971-.5173.5504-.6782.2533-.1634.5576-.2451.9127-.2451.3598 0 .6593.0817.8984.2451.2415.1609.4297.387.5646.6782h.0569c.1396-.2817.3491-.5054.6285-.6711.2794-.1681.6143-.2522 1.005-.2522.4877 0 .8866.1527 1.1967.4581.3101.3031.4652.7754.4652 1.4169V50h-.8381v-3.6506c0-.4024-.11-.6901-.3302-.8629-.2202-.1728-.4794-.2592-.7777-.2592-.3835 0-.6807.116-.8914.348-.2107.2296-.316.5208-.316.8736V50h-.8523v-3.7358c0-.3101-.1006-.5599-.3018-.7493-.2013-.1917-.4605-.2876-.7777-.2876-.2178 0-.4214.058-.6108.174-.187.116-.3386.277-.4546.4829-.1136.2036-.1704.4392-.1704.7067V50H62.81Zm10.9784.1136c-.5256 0-.979-.116-1.3601-.348-.3788-.2344-.6712-.5611-.8772-.9801-.2036-.4214-.3054-.9114-.3054-1.4702 0-.5587.1018-1.0511.3054-1.4772.206-.4285.4925-.7623.8594-1.0015.3693-.2414.8002-.3622 1.2926-.3622.2841 0 .5647.0474.8416.1421.277.0947.5292.2486.7564.4616.2273.2107.4084.4901.5434.8381.1349.348.2024.7765.2024 1.2855v.3551h-4.2046v-.7244h3.3523c0-.3078-.0616-.5824-.1847-.8239-.1207-.2415-.2935-.432-.5184-.5717-.2226-.1397-.4853-.2095-.7884-.2095-.3338 0-.6226.0828-.8665.2486a1.6351 1.6351 0 0 0-.5575.6392c-.1302.2627-.1953.5445-.1953.8451v.483c0 .4119.071.7611.2131 1.0476.1444.2841.3444.5007.6001.6498.2557.1468.5528.2202.8914.2202.2201 0 .419-.0308.5965-.0923.18-.064.335-.1587.4652-.2841.1303-.1279.2309-.2865.3019-.4759l.8096.2273a1.7949 1.7949 0 0 1-.4296.7244c-.2013.206-.4499.367-.7458.483-.2959.1136-.6285.1704-.9978.1704Z"/><g clip-path="url(#a)"><path fill="#00BA00" d="M87 52c3.3137 0 6-2.6863 6-6s-2.6863-6-6-6-6 2.6863-6 6 2.6863 6 6 6Z"/><path fill="#fff" fill-rule="evenodd" d="m85.1264 48.9262-2.1943-2.3487c-.3005-.3215-.2832-.8302.0383-1.1306.3216-.3005.8303-.2832 1.1307.0383l1.6927 1.8116 2.6792-2.5033a.8142.8142 0 0 1 .0753-.0622l1.26-1.1771c.3215-.3005.8303-.2832 1.1307.0384.3004.3215.2831.8302-.0384 1.1307l-3.8482 3.5955-.0041-.0044-1.3312 1.2437-.5907-.6319Z" clip-rule="evenodd"/></g><path fill="#fff" d="M35.8864 63.6364c-.0341-.2879-.1724-.5114-.4148-.6705-.2424-.1591-.5398-.2386-.8921-.2386-.2575 0-.4829.0416-.6761.125-.1913.0833-.3409.1979-.4489.3437-.106.1459-.159.3116-.159.4972 0 .1553.0369.2888.1107.4006a.9835.9835 0 0 0 .2898.2755c.1174.072.2406.1316.3693.179a4.589 4.589 0 0 0 .3552.1108l.5909.1591c.1515.0398.32.0947.5056.1648.1875.07.3665.1657.537.2869.1723.1193.3144.2727.4261.4602.1118.1875.1676.4176.1676.6904 0 .3143-.0824.5984-.2471.8522-.1629.2538-.4015.4555-.7159.6051-.3125.1497-.6923.2245-1.1392.2245-.4167 0-.7775-.0673-1.0824-.2017-.3031-.1345-.5417-.322-.7159-.5625-.1724-.2406-.2699-.5199-.2927-.8381h.7273c.019.2197.0928.4015.2216.5455.1307.142.2955.2481.4943.3181.2008.0682.4167.1023.6478.1023.2689 0 .5104-.0436.7244-.1307.214-.089.3835-.2121.5085-.3693.125-.1591.1875-.3447.1875-.5568 0-.1932-.054-.3504-.1619-.4716-.108-.1212-.25-.2197-.4262-.2955a4.4788 4.4788 0 0 0-.571-.1988l-.7159-.2046c-.4545-.1306-.8144-.3172-1.0795-.5596-.2652-.2424-.3978-.5597-.3978-.9517 0-.3258.0881-.6099.2642-.8523.1781-.2443.4167-.4337.716-.5682.3011-.1363.6373-.2045 1.0085-.2045.375 0 .7083.0672 1 .2017.2916.1326.5227.3144.6932.5454.1723.2311.2632.4934.2727.787h-.6818ZM37.7152 68v-4.3636h.6705V68h-.6705Zm.3409-5.0909c-.1307 0-.2434-.0445-.3381-.1335-.0928-.089-.1392-.1961-.1392-.3211s.0464-.232.1392-.321c.0947-.089.2074-.1335.3381-.1335s.2424.0445.3352.1335c.0947.089.1421.196.1421.321s-.0474.2321-.1421.3211c-.0928.089-.2045.1335-.3352.1335Zm2.228 2.4659V68h-.6705v-4.3636h.6478v.6818h.0568c.1023-.2216.2576-.3996.4659-.5341.2083-.1364.4773-.2046.8068-.2046.2955 0 .554.0607.7756.1819.2216.1193.3939.3011.517.5454.1231.2424.1847.5493.1847.9205V68h-.6705v-2.7273c0-.3428-.089-.6098-.267-.8011-.178-.1932-.4224-.2898-.733-.2898-.214 0-.4053.0464-.5738.1392-.1667.0928-.2983.2282-.3949.4063-.0966.178-.1449.3939-.1449.6477Zm5.782 2.7159c-.4091 0-.7614-.0966-1.0569-.2898-.2954-.1931-.5227-.4592-.6818-.7983-.1591-.339-.2386-.7263-.2386-1.1619 0-.4432.0814-.8343.2443-1.1733.1648-.3409.3939-.607.6875-.7983.2955-.1932.6401-.2898 1.0341-.2898.3068 0 .5833.0569.8295.1705.2462.1136.4479.2727.6051.4773.1572.2045.2548.4432.2927.7159h-.6705c-.0511-.1989-.1648-.375-.3409-.5284-.1742-.1553-.4091-.233-.7045-.233-.2614 0-.4906.0682-.6875.2046-.1951.1344-.3476.3248-.4574.571-.108.2443-.162.5312-.162.8608 0 .3371.0531.6307.1591.8807.108.25.2595.4441.4546.5823.1969.1383.428.2074.6932.2074.1742 0 .3323-.0303.4744-.0909a.9793.9793 0 0 0 .3608-.2613c.0985-.1137.1685-.25.2102-.4091h.6705c-.0379.2575-.1317.4896-.2813.696-.1477.2045-.3437.3674-.5881.4886-.2424.1193-.5246.179-.8465.179Zm4.5255 0c-.4204 0-.7831-.0928-1.088-.2784-.3031-.1875-.537-.4489-.7018-.7841-.1628-.3371-.2443-.7292-.2443-1.1761 0-.447.0815-.8409.2443-1.1818.1648-.3428.394-.6099.6875-.8012.2955-.1932.6402-.2898 1.0341-.2898.2273 0 .4517.0379.6733.1137.2216.0757.4233.1988.6051.3693.1819.1686.3268.392.4347.6705.108.2784.1619.6212.1619 1.0284v.2841h-3.3636v-.5796h2.6818c0-.2462-.0492-.4659-.1477-.6591-.0966-.1932-.2349-.3456-.4148-.4574-.178-.1117-.3882-.1676-.6307-.1676-.267 0-.4981.0663-.6931.1989a1.3085 1.3085 0 0 0-.4461.5113c-.1041.2103-.1562.4357-.1562.6762v.3863c0 .3296.0568.6089.1704.8381.1156.2273.2756.4006.4802.5199.2045.1174.4422.1761.713.1761.1762 0 .3352-.0246.4773-.0738.1439-.0512.268-.1269.3722-.2273.1041-.1023.1846-.2292.2414-.3807l.6478.1818a1.4367 1.4367 0 0 1-.3438.5796c-.161.1648-.3598.2935-.5966.3863-.2367.091-.5028.1364-.7983.1364ZM55.657 68v-.5114l1.9204-2.1022c.2254-.2462.411-.4603.5568-.6421.1459-.1837.2538-.356.3239-.517.072-.1629.108-.3334.108-.5114 0-.2045-.0493-.3816-.1478-.5312-.0966-.1497-.2291-.2652-.3977-.3466-.1686-.0815-.358-.1222-.5682-.1222-.2235 0-.4185.0464-.5852.1392a.9584.9584 0 0 0-.3835.3835c-.0891.1648-.1336.358-.1336.5796h-.6704c0-.3409.0786-.6402.2358-.8977.1572-.2576.3712-.4584.642-.6023.2728-.144.5786-.2159.9176-.2159.341 0 .643.0719.9063.2159.2632.1439.4697.338.6193.5824.1496.2443.2244.5161.2244.8153 0 .214-.0388.4233-.1164.6279-.0758.2026-.2084.4289-.3978.6789-.1875.2481-.4479.5512-.7812.9091l-1.3068 1.3977v.0455h2.7045V68H55.657Zm6.7414.0795c-.428 0-.7926-.1164-1.0937-.3494-.3011-.2348-.5313-.5748-.6904-1.0199-.159-.4469-.2386-.9867-.2386-1.6193 0-.6288.0796-1.1657.2386-1.6108.161-.447.3921-.7879.6932-1.0227.3031-.2368.6667-.3551 1.0909-.3551.4243 0 .787.1183 1.0881.3551.303.2348.5341.5757.6932 1.0227.161.4451.2415.982.2415 1.6108 0 .6326-.0796 1.1724-.2387 1.6193-.1591.4451-.3892.7851-.6903 1.0199-.3011.233-.6657.3494-1.0938.3494Zm0-.625c.4243 0 .7538-.2045.9887-.6136.2348-.4091.3522-.9924.3522-1.75 0-.5038-.0539-.9328-.1619-1.2869-.106-.3542-.2595-.6241-.4602-.8097-.1989-.1856-.4385-.2784-.7188-.2784-.4204 0-.749.2074-.9858.6222-.2367.4128-.3551.9971-.3551 1.7528 0 .5038.0531.9318.1591 1.2841.1061.3523.2585.6203.4574.804.2008.1837.4422.2755.7244.2755Zm5.1478-5.2727V68h-.7046v-5.0795h-.0341l-1.4204.9431v-.7159l1.4545-.9659h.7046Zm3.5255-.0795c.2387.0019.4773.0473.7159.1363.2387.0891.4565.2368.6535.4432.1969.2046.3551.4839.4744.8381.1193.3542.179.7983.179 1.3324 0 .517-.0493.9763-.1478 1.3778-.0966.3996-.2367.7368-.4204 1.0114-.1818.2746-.4034.4829-.6648.625-.2595.142-.553.213-.8807.213-.3257 0-.6165-.0643-.8721-.1931a1.7119 1.7119 0 0 1-.625-.5426c-.161-.233-.2642-.5029-.3097-.8097h.6932c.0625.267.1865.4877.3721.6619.1875.1724.4347.2585.7415.2585.4489 0 .8031-.196 1.0625-.588.2614-.3921.3921-.946.3921-1.662h-.0455a1.7843 1.7843 0 0 1-.3778.412 1.6661 1.6661 0 0 1-.4858.267c-.1781.0625-.3674.0938-.5682.0938-.3333 0-.6392-.0824-.9176-.2472-.2765-.1667-.4981-.3949-.6648-.6846-.1648-.2917-.2471-.625-.2471-1 0-.3561.0795-.6819.2386-.9773.161-.2974.3864-.5341.6761-.7102.2917-.1762.6345-.2614 1.0284-.2557Zm0 .625c-.2386 0-.4536.0596-.6449.1789-.1893.1175-.3399.2766-.4517.4773-.1098.1989-.1647.4195-.1647.662 0 .2424.053.463.1591.6619.1079.197.2547.3542.4403.4716.1875.1155.4006.1733.6392.1733.1799 0 .3475-.0351.5028-.1051a1.3019 1.3019 0 0 0 .4063-.2927 1.4195 1.4195 0 0 0 .2756-.4233 1.2795 1.2795 0 0 0 .0994-.4971c0-.2273-.0549-.4404-.1648-.6392a1.3078 1.3078 0 0 0-.4488-.483c-.1894-.1231-.4053-.1846-.6478-.1846Z"/><defs><clipPath id="a"><path fill="#fff" d="M81 40h12v12H81z"/></clipPath></defs></svg>
