<svg width="120" height="120" xmlns="http://www.w3.org/2000/svg"><g fill="none" fill-rule="evenodd"><circle fill="#E50539" cx="60" cy="60" r="60"/><g fill="#FFF" fill-rule="nonzero"><path d="M86.2747 61.5792c-.0194-.1467-.0368-.2377-.0614-.3275A2.2793 2.2793 0 0 0 86.127 61c-.0562-.1282-.0854-.1865-.117-.2438-.098-.1682-.1345-.218-.1715-.2675a2.1277 2.1277 0 0 0-.201-.2334c-.093-.0887-.1505-.1388-.2105-.186-.1264-.095-.2093-.1506-.2957-.1986L51.8749 40.967l19.1479-12.0573 32.1009 18.2465-13.5194 8.5131c-1.055.6641-1.3718 2.058-.7075 3.1129.6641 1.055 2.0578 1.3718 3.113.7074l16.71-10.5221a2.2565 2.2565 0 0 0 1.054-1.9612 2.2565 2.2565 0 0 0-1.1413-1.9115L72.0788 24.317a2.2576 2.2576 0 0 0-2.3183.0522L46.2941 39.1458l-11.7406 7.393-23.4984 14.797a2.2565 2.2565 0 0 0-1.054 1.9613 2.2565 2.2565 0 0 0 1.1413 1.9115l36.554 20.7779a2.2561 2.2561 0 0 0 2.318-.0521L66.7246 75.412c1.055-.6641 1.3718-2.058.7075-3.1129-.664-1.055-2.058-1.372-3.113-.7075L48.7525 81.394l-32.101-18.247 19.1481-12.0575 34.237 19.461v9.1422a2.2572 2.2572 0 0 0 3.4601 1.9101l11.7413-7.3934a2.2572 2.2572 0 0 0 1.0547-1.9102V61.8436c-.0041-.1143-.009-.1892-.0179-.2644ZM74.5512 76.1604v-6.9232a2.257 2.257 0 0 0-1.142-1.9623L40.1337 48.3605l7.407-4.6643 32.1007 18.2467-2.8106 1.7697c-1.055.6641-1.3718 2.058-.7074 3.113.4288.6816 1.1623 1.0548 1.9124 1.0548.4108 0 .827-.1122 1.2004-.3474l2.5416-1.6003V71.61l-7.2265 4.5505Z"/><path d="M106.3147 54.1763 89.6045 64.6984c-1.055.6641-1.3718 2.058-.7074 3.1129.4289.6817 1.1623 1.0548 1.9124 1.0548.4108 0 .827-.1121 1.2004-.3474l16.7102-10.522c1.055-.6642 1.3718-2.0581.7074-3.113-.664-1.055-2.058-1.372-3.1128-.7074ZM64.319 80.6208 48.752 90.423l-35.379-20.11c-1.083-.6157-2.4618-.2374-3.0778.847-.616 1.0838-.237 2.4619.847 3.078l36.5539 20.7778a2.2561 2.2561 0 0 0 2.318-.0521l16.7102-10.5224c1.055-.6641 1.3718-2.058.7074-3.1129-.6639-1.0553-2.058-1.3722-3.1128-.7076Z"/></g></g></svg>
