<svg width="120" height="120" xmlns="http://www.w3.org/2000/svg"><g fill="none" fill-rule="evenodd"><circle fill="#E50539" cx="60" cy="60" r="60"/><g fill="#FFF" fill-rule="nonzero"><path d="M65.579 65.5692c1.1018-1.0964 1.8367-2.4601 2.1469-3.9441l13.1654-4.5582a1.68 1.68 0 0 0 .8304-.6297L102.694 26.208a1.6794 1.6794 0 0 0-.1924-2.145l-6.5583-6.5587c-.6558-.6555-1.7192-.6555-2.3752 0l-7.9614 7.9616C68.575 12.7994 44.7226 14.4815 29.5988 29.605c-2.427 2.4272-4.5556 5.1298-6.327 8.0337-.483.7918-.2328 1.8253.5592 2.3084a1.671 1.671 0 0 0 .8729.246c.5664 0 1.1188-.2864 1.4353-.8049 1.633-2.6766 3.596-5.1687 5.835-7.4077 13.8242-13.8245 35.5592-15.4678 51.23-4.1124l-4.0993 4.0993c-6.2654-4.2762-13.8332-6.3328-21.4623-5.8044-8.1591.565-15.8412 4.0649-21.631 9.8548-1.5823 1.5824-3.0096 3.32-4.2426 5.165-.5153.7711-.3079 1.814.4632 2.3296.2868.1916.6108.2833.9316.2833.5422 0 1.0742-.262 1.398-.7464 1.111-1.6626 2.398-3.2292 3.825-4.6563 10.2006-10.2007 26.3548-11.7854 38.2959-4.003l-4.886 4.886c-4.2673-2.4273-9.247-3.4899-14.1713-2.9997-5.458.5432-10.6035 2.982-14.4886 6.8672-.6558.6557-.6558 1.7193 0 2.375.328.3281.7577.492 1.1875.492.4298 0 .8597-.164 1.1876-.492 6.2971-6.297 16.0077-7.7364 23.804-3.7616L58.8393 52.2335c-1.618.2375-3.1754.9738-4.418 2.2104-1.1018 1.0964-1.8366 2.4601-2.1469 3.9441l-13.1653 4.5582a1.68 1.68 0 0 0-.8305.6297L17.306 93.8046a1.6791 1.6791 0 0 0 .1924 2.1447l6.5585 6.5586c.328.3278.7577.492 1.1875.492.4298 0 .8597-.1642 1.1875-.492l7.9616-7.9616C41.7907 100.0427 50.7547 103 59.9931 103c.7559 0 1.5148-.0198 2.2736-.0596 10.618-.5573 20.6096-5.0084 28.1345-12.5332 1.9014-1.9014 3.6283-3.982 5.1324-6.1843.5232-.7659.3266-1.8108-.4396-2.334-.7657-.5233-1.8107-.3264-2.334.4395-1.3871 2.0304-2.9798 3.9495-4.7342 5.7037-13.8469 13.8469-35.5537 15.4792-51.2319 4.1134l4.1007-4.1006c5.6207 3.8364 12.2916 5.8858 19.1101 5.8858.8086 0 1.62-.0287 2.4314-.087 8.1286-.5819 15.7826-4.0796 21.5522-9.8492 1.3511-1.3513 2.593-2.8195 3.691-4.3645.5371-.756.36-1.8045-.3961-2.3418-.7559-.5372-1.8045-.36-2.3419.396-.9895 1.3925-2.1091 2.7164-3.328 3.9354-10.1837 10.184-26.3613 11.7785-38.2958 4.003l4.8879-4.8879c3.5868 2.04 7.6765 3.1185 11.8137 3.1185.7974 0 1.5968-.04 2.3941-.1206 5.443-.5506 10.575-2.988 14.4502-6.8633.6557-.6558.6557-1.7192 0-2.3751-.6558-.656-1.7192-.6558-2.375 0-6.2905 6.2903-16.01 7.734-23.8043 3.762l10.4767-10.4767c1.618-.2375 3.1756-.974 4.4183-2.2103ZM94.7557 21.067l4.3788 4.3788L79.274 54.0722l-11.6147 4.0214c-.3422-1.3702-1.0522-2.6266-2.0808-3.6502a7.8495 7.8495 0 0 0-2.517-1.6823l31.694-31.694ZM25.2444 98.9452l-4.3788-4.379L40.7261 65.94l11.6147-4.0212c.3421 1.3701 1.0521 2.6265 2.0808 3.6501a7.8495 7.8495 0 0 0 2.517 1.6824l-31.6942 31.694ZM56.7908 63.188c-.8545-.8502-1.3253-1.9803-1.3253-3.1818 0-.0228.0014-.0453.0017-.068a1.6663 1.6663 0 0 0 .0247-.4147c.1087-1.019.5598-1.9637 1.2989-2.6993.8848-.8803 2.047-1.3207 3.2092-1.3207s2.3245.4404 3.2092 1.3207c.8545.8503 1.3253 1.9804 1.3253 3.1818 0 .0229-.0014.0454-.0017.068a1.6663 1.6663 0 0 0-.0247.4148c-.1087 1.019-.5598 1.9637-1.2989 2.6992-1.7695 1.761-4.6492 1.7609-6.4184 0Z"/><path d="M98.2278 75.8127c-.8401-.3925-1.8397-.0297-2.2324.8107l-.0187.0403c-.387.843-.0173 1.84.8258 2.227.227.104.4652.1534.6995.1534.6361 0 1.2447-.3633 1.5276-.9792l.0092-.0198c.3924-.84.0292-1.8396-.811-2.2324ZM22.4828 42.6317c-.8536-.3626-1.8396.0356-2.2022.8894-.0025.006-.0126.03-.015.0361-.3523.8577.0588 1.8342.9165 2.1871.208.0855.4234.126.6352.126.6612 0 1.2895-.3939 1.5574-1.042.3583-.8524-.04-1.8348-.8919-2.1966Z"/></g></g></svg>
