<svg width="120" height="120" xmlns="http://www.w3.org/2000/svg"><g fill="none" fill-rule="evenodd"><circle fill="#E50539" cx="60" cy="60" r="60"/><g fill="#FFF" fill-rule="nonzero"><path d="M86.2747 51.5792c-.0022-.0185-.0036-.0372-.0063-.0555a2.2246 2.2246 0 0 0-.055-.272c-.0003-.001-.0008-.0018-.001-.003A2.2487 2.2487 0 0 0 86.127 51c-.0095-.0235-.0199-.046-.03-.069a2.2456 2.2456 0 0 0-.087-.1748c-.0137-.025-.027-.0501-.042-.0747-.0079-.0133-.0142-.0271-.0225-.0404a2.2975 2.2975 0 0 0-.107-.1524c-.007-.0092-.0127-.019-.0197-.028a2.1946 2.1946 0 0 0-.1812-.2054c-.012-.0122-.025-.0235-.0375-.0352a2.2742 2.2742 0 0 0-.1731-.1508c-.0154-.012-.0303-.024-.046-.0354a2.2887 2.2887 0 0 0-.2497-.1632L51.8749 30.967l19.1479-12.0573 32.1009 18.2465-13.5194 8.5131c-1.055.6641-1.3718 2.058-.7075 3.1129.6641 1.055 2.0578 1.3718 3.113.7074l16.71-10.5221a2.2565 2.2565 0 0 0 1.054-1.9612 2.2565 2.2565 0 0 0-1.1413-1.9115L72.0788 14.317a2.2576 2.2576 0 0 0-2.3183.0522L46.2941 29.1458l-.0144.009-11.7262 7.384a.9933.9933 0 0 0-.016.0102L11.055 51.3359a2.2565 2.2565 0 0 0-1.054 1.9612 2.2565 2.2565 0 0 0 1.1413 1.9115l36.554 20.7779a2.2561 2.2561 0 0 0 2.318-.0521L66.7246 65.412c1.055-.6641 1.3718-2.058.7075-3.1129-.664-1.055-2.058-1.372-3.113-.7075L48.7525 71.394l-32.101-18.247 19.1481-12.0575 34.237 19.461V86.325a2.2572 2.2572 0 0 0 3.4601 1.9101l11.7413-7.3934a2.2572 2.2572 0 0 0 1.0547-1.9102v-27.088c0-.0134-.0023-.026-.0028-.0393a2.2879 2.2879 0 0 0-.015-.225ZM74.5512 82.2363v-22.999a2.257 2.257 0 0 0-1.142-1.9624L40.1337 38.3605l7.407-4.6643 32.1007 18.2467-2.8106 1.7697c-1.055.6641-1.3718 2.058-.7074 3.113.4288.6816 1.1623 1.0548 1.9124 1.0548.4108 0 .827-.1122 1.2004-.3474l2.5416-1.6003v21.753l-7.2265 4.5506Z"/><path d="M106.3147 44.1763 89.6045 54.6984c-1.055.6641-1.3718 2.058-.7074 3.1129.4289.6817 1.1623 1.0548 1.9124 1.0548.4108 0 .827-.1121 1.2004-.3474l16.7102-10.522c1.055-.6642 1.3718-2.0581.7074-3.113-.664-1.055-2.058-1.372-3.1128-.7074ZM64.319 70.6208 48.752 80.423l-35.379-20.11c-1.083-.6157-2.4618-.2374-3.0778.847-.616 1.0838-.237 2.4619.847 3.078l36.5539 20.7778a2.2561 2.2561 0 0 0 2.318-.0521l16.7102-10.5224c1.055-.6641 1.3718-2.058.7074-3.1129-.6639-1.0553-2.058-1.3722-3.1128-.7076ZM106.3147 53.2056 89.6045 63.7278c-1.055.664-1.3718 2.058-.7074 3.1128.4289.6817 1.1623 1.0549 1.9124 1.0549.4108 0 .827-.1122 1.2004-.3474l16.7102-10.5221c1.055-.6641 1.3718-2.058.7074-3.113-.664-1.0552-2.058-1.372-3.1128-.7074Z"/><path d="M64.319 79.6501 48.752 89.4524l-35.379-20.11c-1.083-.6158-2.4618-.2374-3.0778.847-.616 1.0837-.237 2.4618.847 3.0779L47.6961 94.045a2.2561 2.2561 0 0 0 2.318-.0521l16.7102-10.5223c1.055-.6642 1.3718-2.058.7074-3.113-.6639-1.0554-2.058-1.3721-3.1128-.7076ZM106.3147 62.235 89.6045 72.757c-1.055.6641-1.3718 2.058-.7074 3.1129.4289.6817 1.1623 1.0548 1.9124 1.0548.4108 0 .827-.1122 1.2004-.3474l16.7102-10.5221c1.055-.6641 1.3718-2.058.7074-3.1129-.664-1.055-2.058-1.3717-3.1128-.7074Z"/><path d="M64.319 88.6795 48.752 98.4817l-35.379-20.11c-1.083-.6157-2.4618-.2374-3.0778.847-.616 1.0838-.237 2.4619.847 3.078l36.5539 20.7778a2.2561 2.2561 0 0 0 2.318-.0521L66.7244 92.5c1.055-.6641 1.3718-2.058.7074-3.1129-.6639-1.0553-2.058-1.3722-3.1128-.7076Z"/></g></g></svg>
