<svg xmlns="http://www.w3.org/2000/svg" width="18" height="16"><path fill="#767B85" d="M17.337 13.35c-.46-.654-1.362-1.38-2.608-2.1-1.226-.708-2.681-1.307-3.784-1.568a2.161 2.161 0 0 0-.85-1.473c.324-1.085.534-2.645.534-4.061 0-1.44-.178-2.584-.515-3.309A1.454 1.454 0 0 0 8.8 0c-.562 0-1.078.33-1.314.84-.337.724-.515 1.868-.515 3.308 0 1.416.21 2.976.534 4.061-.46.346-.779.872-.85 1.473-1.103.261-2.558.86-3.784 1.568-1.246.72-2.148 1.446-2.608 2.1a1.454 1.454 0 0 0-.07 1.558 1.454 1.454 0 0 0 1.384.718c.796-.071 1.876-.49 3.123-1.209 1.226-.708 2.472-1.669 3.25-2.493a2.148 2.148 0 0 0 1.7 0c.778.824 2.024 1.785 3.25 2.493 1.247.72 2.327 1.138 3.123 1.209a1.454 1.454 0 0 0 1.384-.718 1.454 1.454 0 0 0-.07-1.558zM8.06 4.148c0-1.705.26-2.518.413-2.85a.361.361 0 0 1 .327-.21c.14 0 .268.083.327.21.154.332.413 1.145.413 2.85 0 1.26-.183 2.674-.459 3.648a2.169 2.169 0 0 0-.562 0c-.276-.974-.459-2.389-.459-3.648zm-3.905 9.326c-1.477.853-2.31 1.035-2.675 1.068a.361.361 0 0 1-.326-.566c.21-.3.785-.93 2.261-1.783 1.09-.63 2.407-1.179 3.39-1.427.072.175.167.338.281.486-.706.727-1.84 1.592-2.93 2.222zm3.573-3.536a1.073 1.073 0 0 1 2.144 0 1.073 1.073 0 0 1-2.144 0zm8.736 4.425a.362.362 0 0 1-.344.179c-.365-.033-1.198-.215-2.675-1.068-1.09-.63-2.225-1.495-2.931-2.222a2.16 2.16 0 0 0 .282-.486c.982.248 2.298.797 3.389 1.427 1.476.853 2.05 1.483 2.261 1.783.08.114.088.266.018.387z"/></svg>
