<svg width="10" height="12" xmlns="http://www.w3.org/2000/svg"><path d="m4.0425.6745.0041 8.0112-2.5298-2.5243a.6569.6569 0 0 0-.4665-.1914.6553.6553 0 0 0-.4655.1914l-.393.3927A.6513.6513 0 0 0 0 7.0178a.651.651 0 0 0 .1913.4638l4.3267 4.327A.6502.6502 0 0 0 4.983 12a.6502.6502 0 0 0 .4657-.1913l4.3271-4.3271a.6513.6513 0 0 0 .1913-.4638.6516.6516 0 0 0-.1913-.4637l-.393-.3927a.65.65 0 0 0-.4636-.1914c-.1755 0-.3315.0678-.455.1914L5.9203 8.714V.6656C5.9203.3039 5.6087 0 5.2473 0h-.5559c-.3614 0-.6488.3129-.6488.6745Z" fill="#FFF" fill-rule="nonzero"/></svg>
