<svg xmlns="http://www.w3.org/2000/svg" width="24" height="24" fill="none"><path d="M7.8693 18.2834c-.6914 0-.9434-.6153-.5742-1.1075.252-.334.7031-.9902.955-1.4707-1.834-.8906-3.0351-2.6133-3.0351-4.5351 0-3.0235 3.0176-5.4551 6.7852-5.4551 3.7675 0 6.7851 2.4316 6.7851 5.4551 0 3.1289-3.0879 5.5195-7.2187 5.4433-1.2364.8789-2.8828 1.67-3.6973 1.67Zm.6973-1.1895c.5273-.2109 1.5761-.873 2.2793-1.3945.2343-.1817.4218-.2578.6738-.2578.2109.0058.3691.0117.4805.0117 3.123 0 5.6074-1.9219 5.6074-4.2832s-2.4844-4.2832-5.6074-4.2832S6.3927 8.8088 6.3927 11.17c0 1.5351 1.0371 2.8711 2.8243 3.7148.375.1758.4394.457.2636.7793-.2168.4043-.662.9844-.961 1.3594-.0468.0586-.0175.0996.047.0703Z" fill="#A3A3A3"/></svg>
