<svg width="32" height="25" xmlns="http://www.w3.org/2000/svg"><g fill="#FFF" fill-rule="nonzero"><path d="M31.9985 22.6563c-.0003-.0048-.0003-.0095-.0007-.0142a.4726.4726 0 0 0-.0082-.0554c-.0004-.0018-.001-.0036-.0013-.0054a.4667.4667 0 0 0-.0137-.0487c-.0014-.0042-.003-.0084-.0045-.0125a.462.462 0 0 0-.0178-.0421c-.0011-.0024-.0019-.0049-.003-.0073l-2.507-5.0202V.934c0-.508-.4071-.9212-.9075-.9212H3.4651c-.5004 0-.9075.4132-.9075.9212v16.5164l-2.507 5.0202c-.0011.0024-.0018.005-.003.0073a.4873.4873 0 0 0-.0177.042c-.0016.0042-.0032.0084-.0046.0127a.4896.4896 0 0 0-.0136.0488c-.0004.0017-.001.0034-.0013.0051a.4756.4756 0 0 0-.0082.0555c-.0005.0047-.0005.0095-.0007.0142-.0006.0099-.0015.0196-.0015.0297v1.2072c0 .6033.4834 1.0941 1.0777 1.0941h29.8445c.5944 0 1.0778-.4908 1.0778-1.0941v-1.2072c0-.01-.0009-.0198-.0015-.0296ZM3.4952.9647h25.0096v16.1236H3.4952V.9647ZM3.3143 18.04h25.3713L30.768 22.21H20.4692l-.5169-1.9029c-.1052-.3873-.4551-.6579-.851-.6579h-6.2028c-.3958 0-.7458.2706-.851.6579l-.5169 1.9029H1.232L3.3143 18.04Zm16.1824 4.17h-6.9935l.4371-1.609h6.1194l.437 1.609Zm11.5658 1.683a.1415.1415 0 0 1-.1403.1424H1.0778a.1415.1415 0 0 1-.1403-.1424v-.7313h30.125v.7313Z"/><path d="M27.036 9.8195c-.2589 0-.4687.213-.4687.476v4.8258H5.4327v-4.8259c0-.2628-.2098-.4759-.4688-.4759-.2589 0-.4687.213-.4687.476v5.0313c0 .4115.3297.7462.735.7462h21.5396c.4053 0 .735-.3347.735-.7462v-5.0314c0-.2627-.2098-.4759-.4687-.4759ZM26.7697 1.9799H5.2303c-.4054 0-.7351.3347-.7351.7462v5.0314c0 .2629.2098.4759.4687.4759.259 0 .4688-.213.4688-.476V2.9318h21.1346v4.8258c0 .2629.2098.4759.4688.4759.2589 0 .4687-.213.4687-.476V2.7262c0-.4116-.3297-.7462-.735-.7462Z"/></g></svg>
