<svg xmlns="http://www.w3.org/2000/svg" width="16" height="16"><path fill="#767B85" d="M15.739 3.676a.826.826 0 0 0-.607-.25H11.42c-.357 0-.737.119-1.142.357V.857a.826.826 0 0 0-.25-.607.826.826 0 0 0-.606-.25H5.71c-.238 0-.5.06-.785.178a2.076 2.076 0 0 0-.678.429l-3.64 3.64c-.167.166-.31.393-.429.678A2.06 2.06 0 0 0 0 5.71v5.996c0 .238.083.44.25.607.166.166.369.25.606.25H5.71v2.569c0 .238.083.44.25.607.166.166.369.25.607.25h8.565c.238 0 .44-.084.606-.25a.825.825 0 0 0 .25-.607V4.282a.826.826 0 0 0-.25-.606zm-5.46 1.65v2.668H7.61l2.667-2.667zM4.568 1.9v2.668H1.9L4.568 1.9zm1.748 5.773c-.167.167-.31.393-.428.678a2.06 2.06 0 0 0-.179.785v2.284H1.142V5.71h3.712c.238 0 .44-.083.606-.25a.826.826 0 0 0 .25-.606V1.142h3.426v3.712l-2.82 2.819zm8.53 7.173H6.851v-5.71h3.712c.238 0 .44-.083.606-.25a.826.826 0 0 0 .25-.606V4.568h3.426v10.278z"/></svg>
