<svg xmlns="http://www.w3.org/2000/svg" width="25" height="14"><g fill="none" fill-rule="evenodd"><path fill="#747474" d="M11.634 9.191c-.238.285-.573.505-1.007.662a4.214 4.214 0 0 1-1.441.235c-.554 0-1.04-.121-1.457-.363a2.418 2.418 0 0 1-.967-1.052c-.227-.46-.343-1-.349-1.622v-.435c0-.638.108-1.191.323-1.659a2.39 2.39 0 0 1 .932-1.072c.405-.248.88-.371 1.426-.371.759 0 1.352.18 1.78.542.427.362.68.889.76 1.58H10.35c-.059-.366-.189-.634-.39-.804-.2-.17-.476-.255-.828-.255-.448 0-.79.169-1.024.506-.234.336-.353.837-.356 1.502v.41c0 .67.128 1.177.383 1.52.255.342.628.514 1.12.514.495 0 .848-.106 1.06-.317V7.61h-1.2v-.97h2.518v2.55zm2.47.809h-1.319V3.602h1.319V10zm5.07-2.615h-2.53V10h-1.319V3.602h4.166v1.067h-2.847v1.653h2.53v1.063z"/><rect width="24" height="13" x=".5" y=".5" stroke="#4F535B" rx="3"/></g></svg>
