<svg width="30" height="30" xmlns="http://www.w3.org/2000/svg"><g fill="#FFF" fill-rule="nonzero"><path d="M19.5003 13.8276H19v-.9655C19 10.729 17.2091 9 15 9c-2.2091 0-4 1.7291-4 3.862v.9656h-.5c-.276 0-.5.216-.5.4825v8.2072c0 .2665.2237.4826.4998.4827H19.5c.276 0 .5-.216.5-.4825V14.3103c0-.2665-.2237-.4826-.4997-.4827ZM12 12.862c0-1.5998 1.3431-2.8966 3-2.8966s3 1.2968 3 2.8966v.9655h-1v-.9655c0-1.0665-.8954-1.931-2-1.931s-2 .8645-2 1.931v.9655h-1v-.9655Zm4 0v.9655h-2v-.9655c0-.5333.4477-.9655 1-.9655s1 .4323 1 .9655Zm3 9.1724h-8V14.793h8v7.2414Z"/><path d="M16.3265 16.4546c-.366-.2942-.838-.4559-1.3265-.4546-1.1013-.003-1.9967.8062-2 1.8074-.0014.444.1764.8732.5 1.206v1.532c0 .251.2237.4545.4998.4546H16c.276 0 .5-.2034.5-.4543v-1.5323c.7294-.7502.6517-1.8958-.1735-2.5588Zm-.661 2.0354c-.1054.0862-.1655.209-.1655.3378v1.2631h-1v-1.263c0-.129-.0602-.2517-.1655-.3379-.2124-.1699-.3342-.4146-.3345-.6718 0-.5021.4477-.9091 1-.9091s1 .407 1 .909c-.0003.2573-.1221.502-.3345.6719Z"/><path d="M29.935 5.5a1.9961 1.9961 0 0 0-1.9349-1.4931 1.9974 1.9974 0 0 0-1.9284 1.4996h-2.0705a.4998.4998 0 0 0-.4998.4996v3.6555a18.9788 18.9788 0 0 1-1.4996-.6647v-5.061c1.0692-.276 1.7121-1.3666 1.4361-2.4358C23.1619.4308 22.0713-.2121 21.0021.064c-1.0692.276-1.7122 1.3666-1.4361 2.4359a1.9993 1.9993 0 0 0 1.436 1.436v4.5214a15.5747 15.5747 0 0 1-5.5711-5.2099.5196.5196 0 0 0-.8543 0 14.4765 14.4765 0 0 1-3.5717 3.8795v-3.191c1.0692-.276 1.7121-1.3666 1.436-2.4358C12.165.4308 11.0745-.2121 10.0053.064 8.936.34 8.293 1.4306 8.569 2.4998a1.9993 1.9993 0 0 0 1.436 1.4361v3.9044c-.7963.5269-1.6318.992-2.4992 1.3913V2.0074a.4998.4998 0 0 0-.4996-.4998H3.9359C3.6598.4383 2.5693-.2046 1.5.0714S-.2121 1.4381.064 2.5073C.34 3.5765 1.4306 4.2195 2.4998 3.9434a1.9993 1.9993 0 0 0 1.436-1.4361h2.5704v7.1543a18.6317 18.6317 0 0 1-2.5218.7935.5015.5015 0 0 0-.167.074l-.0926.0635a.5.5 0 0 0-.2177.4124v1.4167c.01 7.5496 4.421 14.4002 11.2898 17.5334a.4995.4995 0 0 0 .414 0c6.8686-3.1332 11.2797-9.9838 11.2898-17.5334V11.005a.5.5 0 0 0-.2177-.4125l-.0928-.0635a.5015.5015 0 0 0-.167-.074c-.5138-.1217-1.0214-.2685-1.522-.4336V6.5062h1.5706c.2779 1.067 1.368 1.7065 2.435 1.4287 1.0666-.278 1.7061-1.368 1.4283-2.435ZM2.0075 3.0071c-.5521 0-.9997-.4476-.9997-.9998 0-.5521.4476-.9997.9997-.9997.5522 0 .9997.4476.9997.9997-.0006.552-.4478.9991-.9997.9998Zm18.4948-.9998c0-.5521.4476-.9997.9997-.9997.5522 0 .9998.4476.9998.9997 0 .5522-.4476.9998-.9998.9998-.5519-.0007-.999-.4479-.9997-.9998Zm-10.9969 0c0-.5521.4476-.9997.9997-.9997.5522 0 .9998.4476.9998.9997 0 .5522-.4476.9998-.9998.9998-.5519-.0007-.999-.4479-.9997-.9998Zm15.9955 9.3489v1.0654c-.0093 7.0754-4.0969 13.5114-10.497 16.5279C8.6036 25.933 4.516 19.497 4.5068 12.4216v-1.0653c4.3205-1.0962 8.252-3.703 10.497-6.9338 2.2449 3.231 6.1764 5.8376 10.497 6.9338Zm2.4993-4.3502c-.5521 0-.9997-.4476-.9997-.9997 0-.5522.4476-.9998.9997-.9998.5522 0 .9997.4476.9997.9998-.0006.5519-.4478.999-.9997.9997Z"/></g></svg>
