<svg data-name="Layer 1" xmlns="http://www.w3.org/2000/svg" viewBox="0 0 12 11"><path d="m476.8 273.65-.44 2-.27 1.22h4.86V278l-1.66 3.84a.11.11 0 0 1-.1.06h-5.06a.12.12 0 0 1-.12-.1v-5.52l2.76-2.7M477 272l-3.71 3.63a.91.91 0 0 0-.34.77v5.5a1.12 1.12 0 0 0 1.13 1.1h5.06a1.11 1.11 0 0 0 1-.66l1.69-3.91a.92.92 0 0 0 .06-.38v-1.1h.11a1.12 1.12 0 0 0-1.12-1.1h-3.54l.56-2.53v-.17a1.14 1.14 0 0 0-.22-.61L477 272Zm-5 4h-2v7h2v-7Zm10 .95Zm0 0Z" transform="translate(-470 -272)" style="fill:#fff;fill-opacity:.3"/></svg>
