<svg xmlns="http://www.w3.org/2000/svg" width="32" height="32" fill="none"><path d="M10.494 24.3778c-.9219 0-1.2578-.8203-.7656-1.4766.3359-.4453.9375-1.3203 1.2734-1.9609-2.4453-1.1875-4.0468-3.4844-4.0468-6.0469 0-4.0312 4.0234-7.2734 9.0468-7.2734 5.0235 0 9.0469 3.2422 9.0469 7.2734 0 4.1719-4.1172 7.3594-9.625 7.2578-1.6484 1.1719-3.8437 2.2266-4.9297 2.2266Zm.9297-1.5859c.7031-.2813 2.1016-1.1641 3.0391-1.8594.3125-.2422.5625-.3438.8984-.3438.2813.0079.4922.0157.6406.0157 4.1641 0 7.4766-2.5625 7.4766-5.711 0-3.1484-3.3125-5.7109-7.4766-5.7109-4.164 0-7.4765 2.5625-7.4765 5.7109 0 2.0469 1.3828 3.8282 3.7656 4.9532.5.2343.5859.6093.3516 1.039-.2891.5391-.8829 1.3125-1.2813 1.8125-.0625.0781-.0234.1328.0625.0938Z" fill="#A3A3A3"/></svg>
