<svg width="16" height="16" xmlns="http://www.w3.org/2000/svg"><g fill="#E30C32" fill-rule="evenodd"><path d="M8 0C3.589 0 0 3.589 0 8s3.589 8 8 8 8-3.589 8-8-3.589-8-8-8m0 .7273c4.0167 0 7.2727 3.256 7.2727 7.2727S12.0167 15.2727 8 15.2727.7273 12.0167.7273 8 3.9833.7273 8 .7273"/><path d="M7.6364 10.9425c-.2008 0-.3637-.1295-.3637-.331v-.3738c0-1.3876.832-1.7803 1.4997-2.0952.6647-.3135 1.144-.5397 1.144-1.576 0-1.0146-.9571-1.8393-2.1331-1.8393-1.176 0-2.1331.8247-2.1331 1.8393a.3638.3638 0 0 1-.3637.3636.3638.3638 0 0 1-.3636-.3636c0-1.4153 1.283-2.5666 2.8604-2.5666s2.8603 1.1513 2.8603 2.5666c0 1.4974-.8654 1.9062-1.5607 2.2334C8.4545 9.0967 8 9.3112 8 10.2377l-.0058.3739c-.0306.176-.179.3309-.3578.3309M7.6364 12.7273c-.0946 0-.1891-.0364-.2546-.1091-.0727-.0655-.109-.16-.109-.2546 0-.0945.0363-.189.109-.2545.1382-.1382.371-.1382.5091-.0073A.369.369 0 0 1 8 12.3636c0 .0946-.0364.1891-.109.2546-.0655.0727-.16.109-.2546.109"/></g></svg>
