<svg width="20" height="20" fill="none" xmlns="http://www.w3.org/2000/svg"><path d="M10 0a10 10 0 1 1 0 20 10 10 0 0 1 0-20Zm0 14a1 1 0 1 0 0 2 1 1 0 0 0 0-2Zm0-9.5a3.62 3.62 0 0 0-3.63 3.63 1 1 0 0 0 2 0 1.63 1.63 0 1 1 2.24 1.5C9.93 9.9 9 10.6 9 11.75V12a1 1 0 1 0 2 0c0-.24.05-.37.26-.47l.09-.04A3.63 3.63 0 0 0 10 4.5Z" fill="#393B3E"/><path d="M10 4.5a3.62 3.62 0 0 0-3.63 3.63 1 1 0 0 0 2 0 1.63 1.63 0 1 1 2.24 1.5C9.93 9.9 9 10.6 9 11.75V12a1 1 0 1 0 2 0c0-.24.05-.37.26-.47l.09-.04A3.63 3.63 0 0 0 10 4.5ZM10 14a1 1 0 1 0 0 2 1 1 0 0 0 0-2Z" fill="#A2A4A6"/></svg>