<svg width="32" height="31" xmlns="http://www.w3.org/2000/svg"><g fill="#FFF" fill-rule="nonzero"><path d="M5.6 3.2069c-1.3232 0-2.4 1.0791-2.4 2.4052 0 1.326 1.0768 2.4051 2.4 2.4051S8 6.9382 8 5.6121c0-1.326-1.0768-2.4052-2.4-2.4052Zm0 3.7414c-.735 0-1.3333-.5992-1.3333-1.3362 0-.737.5984-1.3362 1.3333-1.3362.735 0 1.3333.5991 1.3333 1.3362 0 .737-.5984 1.3362-1.3333 1.3362Z"/><circle cx="26.6667" cy="4.8103" r="1"/><circle cx="24.5333" cy="4.8103" r="1"/><circle cx="27.7333" cy="6.4138" r="1"/><circle cx="25.6" cy="6.4138" r="1"/><circle cx="22.4" cy="4.8103" r="1"/><circle cx="23.4667" cy="6.4138" r="1"/><circle cx="20.2667" cy="4.8103" r="1"/><circle cx="21.3333" cy="6.4138" r="1"/><circle cx="18.1333" cy="4.8103" r="1"/><circle cx="19.2" cy="6.4138" r="1"/><path d="M32 8.7612V2.463C32 1.1048 30.8976 0 29.5424 0H2.4576C1.1024 0 0 1.1048 0 2.4629v6.2978c0 .7852.375 1.4779.9477 1.929C.375 11.1407 0 11.8334 0 12.618v6.2978c0 1.3586 1.1024 2.4634 2.4576 2.4634h13.009v4.3299c-1.0431.2132-1.8666 1.0385-2.0794 2.0839H.5333A.5338.5338 0 0 0 0 28.3276c0 .2956.239.5345.5333.5345h12.8539C13.6352 30.08 14.712 31 16 31s2.3648-.9198 2.6128-2.138h12.8539A.5338.5338 0 0 0 32 28.3277a.5338.5338 0 0 0-.5333-.5345H18.6128c-.2128-1.0454-1.0363-1.8707-2.0795-2.084v-4.3298h13.0091c1.3552 0 2.4576-1.1048 2.4576-2.4629v-6.2983c0-.7852-.375-1.4773-.9477-1.9284.5728-.4511.9477-1.1438.9477-1.9285ZM17.6 28.3276c0 .884-.7179 1.6034-1.6 1.6034-.8821 0-1.6-.7194-1.6-1.6034 0-.884.7179-1.6035 1.6-1.6035.8821 0 1.6.7195 1.6 1.6035ZM30.9333 12.618v6.2978c0 .7691-.624 1.3944-1.3909 1.3944H2.4576c-.767 0-1.391-.6253-1.391-1.3939v-6.2983c0-.7686.624-1.394 1.391-1.394h27.0843c.7674 0 1.3914.6254 1.3914 1.394ZM2.4576 10.155c-.767 0-1.391-.6253-1.391-1.3939V2.463c0-.7686.624-1.394 1.391-1.394h27.0843c.7674 0 1.3914.6254 1.3914 1.394v6.2978c0 .7691-.624 1.3945-1.3909 1.3945H2.4576Z"/><path d="M5.6 18.1724c1.3232 0 2.4-1.0791 2.4-2.4052 0-1.326-1.0768-2.4051-2.4-2.4051s-2.4 1.079-2.4 2.4051c0 1.326 1.0768 2.4052 2.4 2.4052Zm0-3.7414c.735 0 1.3333.5992 1.3333 1.3362 0 .737-.5984 1.3362-1.3333 1.3362-.735 0-1.3333-.5991-1.3333-1.3362 0-.737.5984-1.3362 1.3333-1.3362Z"/><circle cx="26.6667" cy="14.9655" r="1"/><circle cx="24.5333" cy="14.9655" r="1"/><circle cx="27.7333" cy="16.569" r="1"/><circle cx="25.6" cy="16.569" r="1"/><circle cx="22.4" cy="14.9655" r="1"/><circle cx="23.4667" cy="16.569" r="1"/><circle cx="20.2667" cy="14.9655" r="1"/><circle cx="21.3333" cy="16.569" r="1"/><circle cx="18.1333" cy="14.9655" r="1"/><circle cx="19.2" cy="16.569" r="1"/></g></svg>
