<svg xmlns="http://www.w3.org/2000/svg" width="32" height="32" fill="none"><path d="M16.0016 23.9457c-.1406 0-.3516-.0547-.5469-.1641C10.9703 21.3285 9.4 20.2113 9.4 17.3676v-5.9141c0-.9219.3672-1.2578 1.1328-1.5781.8672-.3594 3.8047-1.4454 4.6563-1.6797.25-.0703.5469-.1407.8125-.1407.2578 0 .5547.0547.8125.1407.8515.2812 3.7812 1.3125 4.6484 1.6797.7735.3281 1.1328.6562 1.1328 1.5781v5.9141c0 2.8437-1.5547 3.9687-6.0468 6.414-.2032.1094-.4141.1641-.5469.1641Zm0-1.6406c.1094 0 .2265-.0391.4453-.1797 3.5312-2.125 4.6875-2.75 4.6875-5.0547v-5.3672c0-.2734-.0625-.3906-.2734-.4688-1.1797-.4218-3.4063-1.2109-4.4532-1.625-.1797-.0625-.2968-.0859-.4062-.0859-.1172 0-.2344.0234-.4063.086-1.0547.414-3.2968 1.1562-4.4531 1.6249-.2187.086-.2734.1954-.2734.4688v5.3672c0 2.289 1.1093 2.8828 4.6797 5.0547.2265.1406.3359.1797.4531.1797Zm-.836-3.0079c-.289 0-.5156-.1171-.7265-.3828l-1.8438-2.2578c-.1328-.164-.2031-.3359-.2031-.5234 0-.3828.3047-.6953.6875-.6953.2266 0 .4141.0859.6016.3281l1.4531 1.8516 3.0859-4.9532c.1641-.2578.375-.3906.6094-.3906.3672 0 .7109.2578.7109.6484 0 .1719-.0937.3594-.1953.5235l-3.4922 5.4609c-.164.2578-.4062.3906-.6875.3906Z" fill="#A3A3A3"/></svg>
