<svg xmlns="http://www.w3.org/2000/svg" width="14" height="14"><g fill="#767B85" fill-rule="evenodd"><path d="M7 .636A6.37 6.37 0 0 0 .636 7 6.37 6.37 0 0 0 7 13.364 6.37 6.37 0 0 0 13.364 7 6.37 6.37 0 0 0 7 .636M7 14c-3.86 0-7-3.14-7-7s3.14-7 7-7 7 3.14 7 7-3.14 7-7 7"/><path d="M7 10.818c-1.56 0-3.047-.86-4.078-2.36a.318.318 0 0 1 .525-.36c.91 1.324 2.205 2.084 3.553 2.084 1.349 0 2.645-.76 3.556-2.087a.319.319 0 0 1 .525.36C10.049 9.957 8.562 10.818 7 10.818M5.727 5.886a.318.318 0 0 1-.318-.318 1.115 1.115 0 0 0-2.227 0 .318.318 0 0 1-.637 0c0-.965.785-1.75 1.75-1.75.966 0 1.75.785 1.75 1.75a.318.318 0 0 1-.318.318m5.409 0a.318.318 0 0 1-.318-.318 1.115 1.115 0 0 0-2.227 0 .318.318 0 0 1-.636 0c0-.965.784-1.75 1.75-1.75.965 0 1.75.785 1.75 1.75a.318.318 0 0 1-.319.318"/></g></svg>
