<svg width="100" height="62" xmlns="http://www.w3.org/2000/svg"><g fill="#767B85" fill-rule="evenodd"><path d="m99.954 43.523-1.175-9.844a1.953 1.953 0 0 0-2.138-1.712c-3.885.398-7.422-2.434-7.885-6.312-.463-3.877 2.309-7.462 6.178-7.99a1.953 1.953 0 0 0 1.675-2.167l-1.175-9.845a6.372 6.372 0 0 0-2.403-4.28A6.372 6.372 0 0 0 88.306.047L19.704 8.235a6.37 6.37 0 0 0-4.247 2.362H6.412A6.42 6.42 0 0 0 0 17.01v9.914c0 1.066.854 1.935 1.92 1.953C5.824 28.943 9 32.174 9 36.08s-3.177 7.136-7.081 7.202A1.953 1.953 0 0 0 0 45.234v9.915a6.42 6.42 0 0 0 6.412 6.412h69.09a6.42 6.42 0 0 0 6.412-6.413v-3.013l12.433-1.484a6.37 6.37 0 0 0 4.28-2.403 6.372 6.372 0 0 0 1.327-4.725zm-21.946 5.144v6.481a2.51 2.51 0 0 1-2.506 2.507h-12.11v-3.662a1.953 1.953 0 1 0-3.907 0v3.662H6.412a2.51 2.51 0 0 1-2.506-2.507v-8.16a11.043 11.043 0 0 0 5.809-3.116 11.042 11.042 0 0 0 3.192-7.793c0-2.935-1.134-5.702-3.192-7.793a11.044 11.044 0 0 0-5.809-3.117v-8.16a2.51 2.51 0 0 1 2.506-2.506h53.073v23.784a1.953 1.953 0 1 0 3.907 0V14.503h12.11a2.51 2.51 0 0 1 2.506 2.507v8.16a11.044 11.044 0 0 0-5.809 3.116 11.042 11.042 0 0 0-3.192 7.793c0 2.935 1.134 5.702 3.192 7.793a11.044 11.044 0 0 0 5.809 3.117v1.678zm17.548-2.834a2.49 2.49 0 0 1-1.672.939l-11.97 1.429v-2.967a1.953 1.953 0 0 0-1.92-1.953c-3.904-.066-7.08-3.297-7.08-7.202s3.176-7.136 7.08-7.202a1.953 1.953 0 0 0 1.92-1.953v-9.915a6.42 6.42 0 0 0-6.412-6.412H32.87l55.9-6.672a2.49 2.49 0 0 1 1.846.519 2.49 2.49 0 0 1 .939 1.672l.967 8.102a11.046 11.046 0 0 0-5.398 3.784 11.043 11.043 0 0 0-2.246 8.116 11.044 11.044 0 0 0 4.093 7.36 11.043 11.043 0 0 0 6.137 2.406l.967 8.102a2.49 2.49 0 0 1-.519 1.847z"/><path d="M63.242 45.392a1.982 1.982 0 0 0-.422-.633 1.961 1.961 0 0 0-.635-.422 1.978 1.978 0 0 0-.365-.113 2.009 2.009 0 0 0-.764 0 2.025 2.025 0 0 0-.7.293 1.88 1.88 0 0 0-.541.54 1.982 1.982 0 0 0-.292.702 1.922 1.922 0 0 0 0 .762 1.972 1.972 0 0 0 .535 1 1.982 1.982 0 0 0 1.38.572 1.94 1.94 0 0 0 .747-.15 1.961 1.961 0 0 0 .877-.719 1.928 1.928 0 0 0 .291-.703 1.924 1.924 0 0 0-.111-1.129zM47.238 31.029l-8.58-1.247-3.837-7.774a1.953 1.953 0 0 0-3.502 0l-3.376 6.84-.461.934-3.248.472-5.332.775a1.953 1.953 0 0 0-1.082 3.331l5.167 5.037 1.04 1.015-.59 3.444-.875 5.1a1.953 1.953 0 0 0 2.834 2.06l7.674-4.035 7.674 4.035a1.95 1.95 0 0 0 2.057-.15 1.953 1.953 0 0 0 .777-1.91l-1.466-8.544 6.208-6.052a1.953 1.953 0 0 0-1.082-3.331zM38.65 38.33a1.953 1.953 0 0 0-.562 1.729l.97 5.656-5.08-2.67c-.568-.3-1.248-.3-1.817 0l-5.08 2.67.97-5.656c.05-.29.03-.584-.048-.86a1.948 1.948 0 0 0-.514-.869l-2.406-2.346-1.703-1.66 1.963-.285 3.716-.54c.059-.009.116-.022.173-.036a1.951 1.951 0 0 0 1.298-1.032l2.54-5.147 2.54 5.147c.285.576.834.976 1.47 1.068l5.68.825-4.11 4.006z"/></g></svg>
