<svg xmlns="http://www.w3.org/2000/svg" width="20" height="20" fill="none" viewBox="0 0 20 20"><path fill="#A9CA92" fill-opacity=".5" d="m9.769 11.464 3.23-1.9 3.232 1.925-.846-3.6 2.846-2.401-3.744-.326L13 1.762l-1.487 3.375-3.744.326 2.846 2.425-.846 3.576Zm3.23-.723-3.722 2.193a.564.564 0 0 1-.305.064.686.686 0 0 1-.272-.094.504.504 0 0 1-.2-.226.426.426 0 0 1-.013-.32l.99-4.11-3.276-2.771a.515.515 0 0 1-.183-.264.412.412 0 0 1 .02-.293.65.65 0 0 1 .169-.23.61.61 0 0 1 .287-.118l4.324-.368L12.505.311a.469.469 0 0 1 .2-.238A.596.596 0 0 1 13 0c.109 0 .207.024.295.073a.457.457 0 0 1 .2.238l1.687 3.893 4.323.368c.12.02.217.06.288.12a.622.622 0 0 1 .17.228.415.415 0 0 1 .019.293.515.515 0 0 1-.183.264l-3.277 2.77.99 4.111a.415.415 0 0 1-.01.319.504.504 0 0 1-.202.226.652.652 0 0 1-.272.095.562.562 0 0 1-.304-.064L13 10.74ZM2.154 19.173 4 18.15l1.846 1.037-.483-1.94 1.626-1.292-2.14-.175L4 13.948l-.849 1.818-2.14.175 1.627 1.306-.483 1.926ZM4 18.783l-2.128 1.181a.339.339 0 0 1-.174.035.407.407 0 0 1-.155-.05.277.277 0 0 1-.115-.123.217.217 0 0 1-.007-.172l.566-2.213-1.872-1.492a.277.277 0 0 1-.105-.142.21.21 0 0 1 .011-.158.353.353 0 0 1 .097-.123.36.36 0 0 1 .164-.064l2.471-.198.964-2.096a.257.257 0 0 1 .115-.129A.357.357 0 0 1 4 13a.36.36 0 0 1 .169.04c.05.026.088.068.114.128l.964 2.096 2.47.198a.35.35 0 0 1 .165.064c.04.032.073.073.097.123.024.05.027.103.01.158a.277.277 0 0 1-.104.142L6.013 17.44l.566 2.213a.211.211 0 0 1-.007.172.277.277 0 0 1-.115.122.386.386 0 0 1-.155.05.337.337 0 0 1-.174-.034L4 18.784Z"/></svg>
