<svg width="14" height="16" xmlns="http://www.w3.org/2000/svg"><path d="M10.499 15.489a.71.71 0 0 1-.497-.198l-2.8-2.726a.672.672 0 0 1 0-.968.716.716 0 0 1 .995 0l1.602 1.568V1.175a.69.69 0 0 1 .7-.682c.386 0 .7.305.7.682v11.99l1.602-1.568a.716.716 0 0 1 .993 0c.275.267.275.7 0 .968l-2.799 2.726a.71.71 0 0 1-.496.198zm-6.998 0a.69.69 0 0 1-.7-.682V2.817L1.2 4.385a.716.716 0 0 1-.993 0 .672.672 0 0 1 0-.968L3.005.691a.71.71 0 0 1 .993 0l2.8 2.726c.273.267.273.7 0 .968a.716.716 0 0 1-.995 0L4.201 2.817v11.99a.69.69 0 0 1-.7.682z" fill="#929294"/></svg>
