<svg width="14" height="14" fill="none" xmlns="http://www.w3.org/2000/svg"><path d="M2.8693 13.2834c-.6914 0-.9434-.6153-.5742-1.1075.252-.3339.7031-.9902.955-1.4707C1.4162 9.8146.215 8.092.215 6.1701.215 3.1466 3.2326.715 7.0002.715c3.7675 0 6.7851 2.4316 6.7851 5.455 0 3.129-3.0879 5.5196-7.2187 5.4434-1.2364.8789-2.8829 1.67-3.6973 1.67Zm.6973-1.1895c.5273-.2109 1.5761-.873 2.2793-1.3945.2343-.1817.4218-.2578.6738-.2578.211.0058.3691.0117.4805.0117 3.123 0 5.6074-1.9219 5.6074-4.2832s-2.4844-4.2832-5.6074-4.2832S1.3927 3.8087 1.3927 6.17c0 1.5351 1.0371 2.871 2.8242 3.7148.375.1758.4395.4571.2637.7793-.2168.4043-.662.9844-.961 1.3594-.0468.0586-.0175.0996.047.0703Z" fill="#A3A3A3"/></svg>
