<svg width="14" height="16" fill="none" xmlns="http://www.w3.org/2000/svg"><path d="M7.0016 15.9457c-.1406 0-.3516-.0547-.5469-.1641C1.9703 13.3285.4 12.2113.4 9.3676V3.4534c0-.9219.3672-1.2578 1.1328-1.5781C2.4 1.516 5.3375.43 6.1891.1957c.25-.0703.5469-.1406.8125-.1406.2578 0 .5547.0546.8125.1406.8515.2812 3.7812 1.3125 4.6484 1.6797.7735.328 1.1328.6562 1.1328 1.578v5.9141c0 2.8438-1.5547 3.9688-6.0468 6.4141-.2032.1094-.4141.1641-.547.1641Zm0-1.6406c.1094 0 .2266-.0391.4453-.1797 3.5312-2.125 4.6875-2.75 4.6875-5.0547V3.7035c0-.2734-.0625-.3906-.2734-.4688-1.1797-.4218-3.4063-1.2109-4.4532-1.625-.1796-.0625-.2968-.0859-.4062-.0859-.1172 0-.2344.0234-.4063.086-1.0546.414-3.2968 1.1562-4.453 1.625-.2188.0859-.2735.1953-.2735.4687v5.3672c0 2.289 1.1093 2.8828 4.6797 5.0547.2265.1406.3359.1797.453.1797Zm-.836-3.0079c-.289 0-.5156-.1171-.7265-.3828L3.5953 8.6566c-.1328-.164-.203-.336-.203-.5234 0-.3828.3046-.6953.6874-.6953.2266 0 .414.0859.6016.328l1.4531 1.8516 3.086-4.953c.164-.2579.375-.3907.6093-.3907.3672 0 .7109.2578.7109.6484 0 .172-.0937.3594-.1953.5235l-3.4921 5.4609c-.1641.2578-.4063.3906-.6875.3906Z" fill="#A3A3A3"/></svg>
